<svg width="15" height="20" viewBox="0 0 15 20" fill="none" xmlns="http://www.w3.org/2000/svg">
<path d="M1.88775 10.346L7.72351 3.10079C8.00454 2.75198 8.33816 2.4753 8.70531 2.28656C9.07247 2.09782 9.46597 2.00071 9.86335 2.00077C10.2607 2.00084 10.6542 2.09807 11.0213 2.28693C11.3885 2.47579 11.722 2.75257 12.003 3.10147C12.2839 3.45038 12.5068 3.86457 12.6588 4.32039C12.8108 4.77622 12.889 5.26476 12.889 5.75812C12.8889 6.25148 12.8106 6.73999 12.6585 7.19577C12.5064 7.65155 12.2834 8.06567 12.0024 8.41448L5.00038 17.1076C4.74227 17.4281 4.39221 17.6081 4.0272 17.6081C3.66218 17.6081 3.31212 17.4281 3.05402 17.1076C2.79592 16.7872 2.65092 16.3526 2.65092 15.8994C2.65092 15.4462 2.79592 15.0116 3.05402 14.6912L9.27818 6.9638C9.42394 6.76959 9.50329 6.51273 9.49952 6.24731C9.49575 5.9819 9.40915 5.72867 9.25796 5.54096C9.10677 5.35326 8.90279 5.24574 8.68901 5.24105C8.47523 5.23637 8.26833 5.33489 8.1119 5.51586L1.88775 13.2432C1.32018 13.9479 1.00133 14.9036 1.00133 15.9001C1.00133 16.8966 1.32018 17.8523 1.88775 18.5569C2.45531 19.2616 3.22509 19.6574 4.02775 19.6574C4.8304 19.6574 5.60019 19.2616 6.16775 18.5569L13.1687 9.86243C14.0288 8.76947 14.5071 7.2996 14.4999 5.77164C14.4928 4.24368 14.0007 2.78083 13.1304 1.70038C12.2601 0.619925 11.0819 0.00899655 9.85114 9.85683e-05C8.62041 -0.00879941 7.43648 0.58505 6.55614 1.65284L0.721473 8.89668C0.57571 9.09089 0.496357 9.34775 0.500129 9.61317C0.5039 9.87858 0.590504 10.1318 0.741693 10.3195C0.892883 10.5072 1.09685 10.6147 1.31064 10.6194C1.52442 10.6241 1.73132 10.5256 1.88775 10.3446V10.346Z" fill="#757575"/>
</svg>
